<svg xmlns="http://www.w3.org/2000/svg" width="32" height="32" viewBox="0 0 32 32">
  <rect width="32" height="32" fill="white"/>
  
  <!-- Cloud shape in blue -->
  <path d="M8 20c0-1.1.4-2.1 1.1-2.8.3-1.5 1.2-2.8 2.6-3.5.5-2.3 2.5-4 4.8-4 2.2 0 4.1 1.4 4.8 3.4.9-.4 1.9-.6 2.9-.6 3.3 0 6 2.7 6 6s-2.7 6-6 6H10c-1.1 0-2-.9-2-2z" fill="#3B82F6" stroke="#1E40AF" stroke-width="0.5"/>
  
  <!-- Small photo/image icon inside cloud -->
  <rect x="14" y="17" width="4" height="3" rx="0.5" fill="white" stroke="none"/>
  <circle cx="15" cy="18" r="0.4" fill="#3B82F6"/>
  <polygon points="14.2,19.5 15.2,18.8 15.8,19.2 17,18.2 17.8,19.5" fill="#3B82F6"/>
</svg>
