<svg xmlns="http://www.w3.org/2000/svg" viewBox="0 0 32 32" fill="none">
  <defs>
    <linearGradient id="cloudGradient" x1="0%" y1="0%" x2="100%" y2="100%">
      <stop offset="0%" style="stop-color:#3B82F6;stop-opacity:1" />
      <stop offset="100%" style="stop-color:#1E40AF;stop-opacity:1" />
    </linearGradient>
  </defs>
  
  <!-- Cloud shape -->
  <path d="M24 18c2.2 0 4-1.8 4-4s-1.8-4-4-4c-0.4-2.8-2.8-5-5.5-5-2.2 0-4.1 1.3-5 3.2C12.7 8.1 12.4 8 12 8c-2.2 0-4 1.8-4 4 0 0.3 0 0.6 0.1 0.9C6.8 13.5 6 14.7 6 16c0 2.2 1.8 4 4 4h14z" 
        fill="url(#cloudGradient)" 
        stroke="#1E40AF" 
        stroke-width="1"/>
  
  <!-- Small image icon inside cloud -->
  <rect x="13" y="15" width="6" height="4" rx="0.5" fill="white" opacity="0.9"/>
  <circle cx="14.5" cy="16.5" r="0.8" fill="#3B82F6"/>
  <path d="M13.5 18.5l1.5-1.2 1.2 0.9 1.8-1.4v1.7h-4.5z" fill="#3B82F6"/>
</svg>
